<?xml version="1.0" encoding="UTF-8"?>
<svg id="a" data-name="BRUTEBANK" xmlns="http://www.w3.org/2000/svg" xmlns:xlink="http://www.w3.org/1999/xlink" viewBox="0 0 2726.24707 739.16513">
  <defs>
    <linearGradient id="b" x1="643.6797" y1="645.67967" x2="206.32037" y2="208.32034" gradientTransform="translate(0 741.16513) scale(1 -1)" gradientUnits="userSpaceOnUse">
      <stop offset="0" stop-color="#783e98"/>
      <stop offset="1" stop-color="#00b9ce"/>
    </linearGradient>
  </defs>
  <path id="c" data-name="bblogo" d="M548.19423,110.83491l190.97091,190.97094-135.55348,135.55348-55.41743,55.41746-135.55348,135.55348L110.8349,326.52441l55.41744-55.41746,110.83492,110.83492,80.13602-80.13602-110.8349-110.83492,55.41744-55.41746,110.83492,110.8349,135.55348-135.55347m0,271.10697l80.13605-80.13602-80.13605-80.13602-80.13602,80.13602,80.13602,80.13602m-135.55348,135.55348l80.13602-80.13602-19.93434-19.93434-60.20169-60.20169-80.13602,80.13602,80.13602,80.13602M548.19423,0l-55.41746,55.41745-80.13602,80.13603-55.41746-55.41746-55.41746-55.41745-55.41744,55.41745-55.41744,55.41746-55.41746,55.41744h0l-24.71858,24.71858-55.41745,55.41744L0,326.52441l55.41745,55.41746,301.80584,301.80583,55.41746,55.41743,55.41746-55.41743,135.55345-135.55348,55.41743-55.41746,135.55348-135.55348,55.41743-55.41746-55.41743-55.41746L603.61166,55.41742,548.19423,0h0Z" style="fill: url(#b);"/>
  <g>
    <path d="M1094.43359,404.9937c0,46.19043-33.47949,81.83984-74.08887,81.83984-20.76953,0-35.95996-7.12988-46.18945-18.91016v14.57031h-46.5v-216.99805h46.5v76.56934c10.22949-11.78027,25.41992-18.91016,46.18945-18.91016,40.60938,0,74.08887,35.6499,74.08887,81.83887Zm-46.49902,0c0-23.24902-15.5-37.81934-36.88965-37.81934s-36.88965,14.57031-36.88965,37.81934,15.5,37.82031,36.88965,37.82031,36.88965-14.57031,36.88965-37.82031Z"/>
    <path d="M1279.81055,327.49467v154.99902h-46.5v-14.57031c-10.23047,11.78027-25.41992,18.91016-46.18945,18.91016-40.61035,0-74.08984-35.64941-74.08984-81.83984s33.47949-81.83887,74.08984-81.83887c20.76953,0,35.95898,7.12988,46.18945,18.91016v-14.57031h46.5Zm-46.5,77.49902c0-23.24902-15.5-37.81934-36.88965-37.81934s-36.88965,14.57031-36.88965,37.81934,15.5,37.82031,36.88965,37.82031,36.88965-14.57031,36.88965-37.82031Z"/>
    <path d="M1306.15625,404.9937c0-46.18896,35.03027-81.83887,82.14941-81.83887,30.06934,0,56.72949,15.81006,70.05957,39.67969l-40.60938,23.55957c-5.27051-10.84961-16.43066-17.35938-30.07031-17.35938-20.14941,0-35.0293,14.56934-35.0293,35.95898s14.87988,35.95996,35.0293,35.95996c13.63965,0,25.11035-6.50977,30.07031-17.35938l40.60938,23.24902c-13.33008,24.18066-39.67969,39.99023-70.05957,39.99023-47.11914,0-82.14941-35.64941-82.14941-81.83984Z"/>
    <path d="M1573.06641,482.4937l-49.59961-68.50977v68.50977h-46.5v-216.99805h46.5v129.88867l46.49902-67.88965h54.25l-56.41992,77.49902,57.96973,77.5h-52.69922Z"/>
    <path d="M1783.24512,327.49467v154.99902h-46.5v-14.57031c-8.36914,11.4707-23.86914,18.91016-44.3291,18.91016-31.30957,0-57.96973-22.32031-57.96973-64.16992v-95.16895h46.5v88.34961c0,19.21973,12.08984,28.20996,26.96973,28.20996,17.0498,0,28.8291-9.91992,28.8291-31.93066v-84.62891h46.5Z"/>
    <path d="M1984.12305,404.9937c0,46.19043-33.47949,81.83984-74.08887,81.83984-20.76953,0-35.95996-7.12988-46.18945-18.91016v76.56934h-46.5v-216.99805h46.5v14.57031c10.22949-11.78027,25.41992-18.91016,46.18945-18.91016,40.60938,0,74.08887,35.6499,74.08887,81.83887Zm-46.49902,0c0-23.24902-15.5-37.81934-36.88965-37.81934s-36.88965,14.57031-36.88965,37.81934,15.5,37.82031,36.88965,37.82031,36.88965-14.57031,36.88965-37.82031Z"/>
    <path d="M2177.24805,404.9937c0,46.19043-33.47949,81.83984-74.08887,81.83984-20.76953,0-35.95996-7.12988-46.18945-18.91016v14.57031h-46.5v-216.99805h46.5v76.56934c10.22949-11.78027,25.41992-18.91016,46.18945-18.91016,40.60938,0,74.08887,35.6499,74.08887,81.83887Zm-46.49902,0c0-23.24902-15.5-37.81934-36.88965-37.81934s-36.88965,14.57031-36.88965,37.81934,15.5,37.82031,36.88965,37.82031,36.88965-14.57031,36.88965-37.82031Z"/>
    <path d="M2362.625,327.49467v154.99902h-46.5v-14.57031c-10.23047,11.78027-25.41992,18.91016-46.18945,18.91016-40.61035,0-74.08984-35.64941-74.08984-81.83984s33.47949-81.83887,74.08984-81.83887c20.76953,0,35.95898,7.12988,46.18945,18.91016v-14.57031h46.5Zm-46.5,77.49902c0-23.24902-15.5-37.81934-36.88965-37.81934s-36.88965,14.57031-36.88965,37.81934,15.5,37.82031,36.88965,37.82031,36.88965-14.57031,36.88965-37.82031Z"/>
    <path d="M2545.51953,387.32378v95.16992h-46.5v-88.34961c0-19.21973-12.08984-28.20947-26.96973-28.20947-17.0498,0-28.8291,9.91943-28.8291,31.9292v84.62988h-46.5v-154.99902h46.5v14.57031c8.36914-11.47021,23.86914-18.91016,44.3291-18.91016,31.30957,0,57.96973,22.31982,57.96973,64.16895Z"/>
    <path d="M2673.54785,482.4937l-49.59961-68.50977v68.50977h-46.5v-216.99805h46.5v129.88867l46.49902-67.88965h54.25l-56.41992,77.49902,57.96973,77.5h-52.69922Z"/>
  </g>
</svg>