<?xml version="1.0" encoding="UTF-8"?>
<svg width="850px" height="740px" viewBox="0 0 850 740" version="1.1" xmlns="http://www.w3.org/2000/svg" xmlns:xlink="http://www.w3.org/1999/xlink">
    <title>c</title>
    <defs>
        <linearGradient x1="75.7270235%" y1="21.9580592%" x2="24.2729847%" y2="66.7028019%" id="linearGradient-1">
            <stop stop-color="#783E98" offset="0%"></stop>
            <stop stop-color="#00B9CE" offset="100%"></stop>
        </linearGradient>
    </defs>
    <g id="Page-1" stroke="none" stroke-width="1" fill="none" fill-rule="evenodd">
        <path d="M548.19423,110.8349 L739.16514,301.80585 L603.61166,437.35933 L548.19423,492.77679 L412.64075,628.33027 L110.8349,326.52441 L166.25234,271.10695 L277.08726,381.94187 L357.22328,301.80585 L246.38838,190.97093 L301.80582,135.55347 L412.64074,246.38837 L548.19422,110.8349 M548.19422,381.94187 L628.33027,301.80585 L548.19422,221.66983 L468.0582,301.80585 L548.19422,381.94187 M412.64074,517.49535 L492.77676,437.35933 L472.84242,417.42499 L412.64073,357.2233 L332.50471,437.35932 L412.64073,517.49535 M548.19423,-5.68434189e-14 L492.77677,55.41745 L412.64075,135.55348 L357.22329,80.13602 L301.80583,24.71857 L246.38839,80.13602 L190.97095,135.55348 L135.55349,190.97092 L135.55349,190.97092 L110.83491,215.6895 L55.41746,271.10694 L0,326.52441 L55.41745,381.94187 L357.22329,683.7477 L412.64075,739.16513 L468.05821,683.7477 L603.61166,548.19422 L659.02909,492.77676 L794.58257,357.22328 L850,301.80582 L794.58257,246.38836 L603.61166,55.41742 L548.19423,-5.68434189e-14 L548.19423,-5.68434189e-14 Z" id="c" fill="url(#linearGradient-1)" fill-rule="nonzero"></path>
    </g>
</svg>